<svg width="17" height="16" viewBox="0 0 17 16" fill="none" xmlns="http://www.w3.org/2000/svg">
<g clip-path="url(#clip0_137_7600)">
<path d="M14.9167 3.33337V4.66671H12.9167V6.66671H11.5833V4.66671H9.58333V3.33337H11.5833V1.33337H12.9167V3.33337H14.9167ZM12.9167 12.6667H3.58333V3.33337H7.58333V2.00004H3.58333C2.85 2.00004 2.25 2.60004 2.25 3.33337V12.6667C2.25 13.4 2.85 14 3.58333 14H12.9167C13.65 14 14.25 13.4 14.25 12.6667V8.66671H12.9167V12.6667ZM10.25 8.66671V11.3334H11.5833V8.66671H10.25ZM7.58333 11.3334H8.91667V6.00004H7.58333V11.3334ZM6.25 11.3334V7.33337H4.91667V11.3334H6.25Z" fill="#021323"/>
</g>
<defs>
<clipPath id="clip0_137_7600">
<rect width="16" height="16" fill="white" transform="translate(0.25)"/>
</clipPath>
</defs>
</svg>
