<svg width="15" height="15" viewBox="0 0 15 15" fill="none" xmlns="http://www.w3.org/2000/svg">
<path d="M7.09168 11.4264C6.98474 11.3194 6.93127 11.1857 6.93127 11.0253C6.93127 10.8649 6.98474 10.7264 7.09168 10.6097L10.0375 7.67845L3.3146 7.67845C3.14932 7.67845 3.01321 7.62255 2.90627 7.51074C2.79932 7.39894 2.74585 7.2604 2.74585 7.09512C2.74585 6.92984 2.79932 6.7913 2.90627 6.67949C3.01321 6.56769 3.14932 6.51178 3.3146 6.51178L10.0375 6.51178L7.09168 3.56595C6.98474 3.45901 6.93127 3.32289 6.93127 3.15762C6.93127 2.99234 6.98474 2.85623 7.09168 2.74928C7.20835 2.64234 7.34689 2.58887 7.50731 2.58887C7.66773 2.58887 7.80141 2.64234 7.90835 2.74928L11.8604 6.68678C11.9188 6.74512 11.9625 6.80831 11.9917 6.87637C12.0209 6.94442 12.0354 7.01734 12.0354 7.09512C12.0354 7.16317 12.0209 7.23366 11.9917 7.30658C11.9625 7.37949 11.9188 7.44512 11.8604 7.50345L7.90835 11.441C7.80141 11.5576 7.66773 11.6111 7.50731 11.6014C7.34689 11.5916 7.20835 11.5333 7.09168 11.4264Z" fill="#021323"/>
</svg>
