<svg width="15" height="14" viewBox="0 0 15 14" fill="none" xmlns="http://www.w3.org/2000/svg">
<g clip-path="url(#clip0_134_2003)">
<rect x="0.5" width="14" height="14" rx="4" fill="#40A3F8"/>
<path d="M6.13906 10.3758C5.77096 10.376 5.41806 10.229 5.15906 9.96744L3.41663 8.22794C3.07481 7.88633 3.07465 7.33232 3.41625 6.99049C3.41639 6.99036 3.41652 6.99022 3.41663 6.99008C3.75832 6.64851 4.3122 6.64851 4.65388 6.99008L6.13906 8.47466L10.3461 4.26766C10.6877 3.92608 11.2416 3.92608 11.5833 4.26766C11.9251 4.60926 11.9253 5.16328 11.5837 5.5051C11.5836 5.50524 11.5834 5.50537 11.5833 5.50548L7.11849 9.97033C6.85921 10.2308 6.50656 10.3768 6.13906 10.3758Z" fill="white"/>
</g>
<rect x="1" y="0.5" width="13" height="13" rx="3.5" stroke="#40A3F8"/>
<defs>
<clipPath id="clip0_134_2003">
<rect x="0.5" width="14" height="14" rx="4" fill="white"/>
</clipPath>
</defs>
</svg>
