<svg width="17" height="16" viewBox="0 0 17 16" fill="none" xmlns="http://www.w3.org/2000/svg">
<g clip-path="url(#clip0_137_7592)">
<path d="M8.08105 6.10671V1.33337C4.74772 1.66671 2.08105 4.52671 2.08105 8.00004C2.08105 11.4734 4.74772 14.3334 8.08105 14.6667V9.89337C7.41439 9.62004 6.74772 8.88004 6.74772 8.00004C6.74772 7.12004 7.41439 6.38004 8.08105 6.10671ZM10.6544 7.33337H15.4144C15.0944 4.16671 12.7477 1.64671 9.41439 1.33337V6.10671C10.0811 6.30671 10.4277 6.76004 10.6544 7.33337ZM9.41439 9.89337V14.6667C12.7477 14.3534 15.0944 11.8334 15.4144 8.66671H10.6544C10.4277 9.24004 10.0811 9.69337 9.41439 9.89337Z" fill="#021323"/>
</g>
<defs>
<clipPath id="clip0_137_7592">
<rect width="16" height="16" fill="white" transform="translate(0.75)"/>
</clipPath>
</defs>
</svg>
