<svg width="77" height="36" viewBox="0 0 77 36" fill="none" xmlns="http://www.w3.org/2000/svg">
<path fill-rule="evenodd" clip-rule="evenodd" d="M19.3444 1.28428C18.391 1.99033 17.211 3.03073 16.7222 3.59548C16.2333 4.16068 15.2333 4.89058 14.4999 5.21818C13.1879 5.80363 13.1297 5.77168 10.8644 3.24403L8.5626 0.674983L7.6106 1.61953C6.47371 2.74768 5.56882 6.04888 6.49549 5.68888C7.09682 5.45533 10.9377 8.48203 10.5444 8.87983C10.2982 9.12913 7.1026 7.25623 6.66038 6.60283C6.50437 6.37243 6.26348 7.07038 6.12526 8.15443C5.98748 9.23803 5.74438 10.8747 5.58571 11.7909C5.3346 13.2372 5.4626 13.612 6.55815 14.6403C7.55726 15.5776 8.16882 15.7905 9.49326 15.6627C10.8599 15.5308 11.1666 15.6478 11.1666 16.3008C11.1666 17.3871 11.7106 17.3047 12.8835 16.0407C13.5657 15.3054 14.2013 15.0462 14.9608 15.1929C15.6222 15.3211 16.0555 15.1956 16.0555 14.8761C16.0555 14.5849 16.2555 14.472 16.4999 14.625C16.7444 14.778 16.9444 14.535 16.9444 14.085C16.9444 13.5234 17.7724 12.8844 19.5897 12.0438C21.0448 11.371 22.4519 10.4112 22.7168 9.91033C23.3484 8.71468 22.8315 8.75563 21.4208 10.0125C20.3542 10.9624 20.3337 10.9651 21.0875 10.057C21.5862 9.45673 21.719 8.98153 21.4373 8.80513C21.1875 8.64898 20.6626 9.01708 20.2706 9.62278C19.5639 10.7149 18.3439 11.4669 17.9413 11.0592C17.8262 10.9426 18.1559 10.1524 18.6746 9.30283C19.7986 7.46188 22.2777 1.48228 22.2777 0.612883C22.2777 -0.351017 21.227 -0.110717 19.3444 1.28428ZM20.7773 1.59253C20.3484 2.72383 20.4746 3.01588 20.9986 2.10373C21.2582 1.65193 21.3768 1.18753 21.2622 1.07188C21.1479 0.955783 20.9293 1.19023 20.7773 1.59253ZM19.4906 1.62178C19.3124 1.80223 19.1728 2.37193 19.1799 2.88763C19.1924 3.75298 19.2293 3.76333 19.6559 3.02038C20.1533 2.15548 20.0262 1.07998 19.4906 1.62178ZM8.50171 2.33818C9.19326 3.18463 9.02082 3.77458 8.26704 3.14098C7.8946 2.82778 7.49015 2.67208 7.36882 2.79493C7.24749 2.91778 8.06793 3.87628 9.19149 4.92478C10.315 5.97373 11.3662 6.69823 11.527 6.53488C11.6884 6.37198 11.3382 5.87023 10.7488 5.42068C10.1599 4.97068 9.62615 4.24573 9.56304 3.81013C9.49993 3.37408 9.13549 2.74273 8.75326 2.40703C8.37149 2.07133 8.25815 2.04028 8.50171 2.33818ZM18.1106 3.39253C17.9582 3.79438 17.8506 4.46128 17.8715 4.87438C17.8924 5.28703 18.0857 5.02783 18.3013 4.29748C18.7204 2.87728 18.5719 2.17438 18.1106 3.39253ZM19.8617 3.91813C19.6208 4.55938 19.6715 4.61113 20.1106 4.17013C20.4146 3.86458 20.551 3.50143 20.4142 3.36328C20.2773 3.22468 20.0288 3.47443 19.8617 3.91813ZM6.73149 4.16248C6.74082 4.71643 9.86304 7.19998 10.5502 7.19998C10.7439 7.19998 10.1213 6.38998 9.1666 5.39998C7.36526 3.53203 6.71549 3.20173 6.73149 4.16248ZM16.8097 4.22683C16.6279 4.69528 16.5839 5.18488 16.7115 5.31448C17.1173 5.72488 17.4737 5.05213 17.3039 4.19758C17.1484 3.41458 17.1244 3.41593 16.8097 4.22683ZM15.5079 5.64928C15.3293 5.83288 15.2955 6.51058 15.4328 7.15408C15.6275 8.06578 15.5782 8.17558 15.2093 7.64998C14.9177 7.23418 14.7333 7.18063 14.7288 7.51093C14.7182 8.35513 15.5897 8.67958 15.8715 7.93618C16.2102 7.04338 15.9208 5.22448 15.5079 5.64928ZM13.8333 6.32653C13.8333 6.58843 14.0333 6.67798 14.2777 6.52498C14.5222 6.37198 14.7222 6.15778 14.7222 6.04843C14.7222 5.93908 14.5222 5.84998 14.2777 5.84998C14.0333 5.84998 13.8333 6.06463 13.8333 6.32653ZM17.1439 7.41058C16.7897 8.26873 16.5106 9.53458 16.5239 10.2231C16.5453 11.3206 16.6453 11.2252 17.3359 9.44998C17.7693 8.33623 18.3155 7.46098 18.5497 7.50553C18.7844 7.54963 18.9759 7.19503 18.9759 6.71803C18.9759 5.29963 17.8373 5.73028 17.1439 7.41058ZM11.9742 7.05418C11.5626 7.16443 11.2542 7.63333 11.2884 8.09593C11.323 8.55898 11.4804 8.85643 11.6386 8.75788C11.7968 8.65888 12.3902 9.07783 12.9573 9.68893C14.4933 11.344 15.0022 11.0317 13.6639 9.25513C12.4199 7.60408 12.1808 6.94708 13.0133 7.46773C13.331 7.66708 13.4057 7.59148 13.2088 7.26973C13.0346 6.98398 12.8537 6.77338 12.807 6.80218C12.7604 6.83098 12.3857 6.94438 11.9742 7.05418ZM6.79327 8.36548C6.88927 8.87173 7.75282 9.47518 9.05771 9.94768C11.8266 10.9507 11.7475 10.363 8.90215 8.79523C6.91993 7.70263 6.65682 7.64908 6.79327 8.36548ZM12.2377 10.755C12.6582 11.2252 13.439 11.7207 13.9733 11.8557C14.7937 12.0627 14.7373 11.9304 13.611 11.0025C12.0284 9.69883 11.1524 9.54133 12.2377 10.755ZM7.61104 10.5862C7.61104 10.9174 9.32438 11.5339 11.1666 11.8656L12.7222 12.1455L10.9444 11.281C9.21726 10.4413 7.61104 10.1065 7.61104 10.5862ZM5.83326 11.25C5.83326 11.4975 6.13326 11.7 6.49993 11.7C6.8666 11.7 7.1666 11.4975 7.1666 11.25C7.1666 11.0025 6.8666 10.8 6.49993 10.8C6.13326 10.8 5.83326 11.0025 5.83326 11.25ZM27.919 14.4063C26.3315 16.1424 23.7964 19.3909 22.2848 21.6252C20.1293 24.8116 19.2573 25.744 18.2408 25.9501C16.7724 26.2471 16.7617 26.2665 17.4417 27.3685C17.8324 28.0021 17.7368 28.5768 16.9973 30.0447C15.9146 32.1934 15.6475 35.9068 16.6742 34.5375C16.999 34.1041 17.4777 33.75 17.7386 33.75C17.999 33.75 18.3039 34.1041 18.4159 34.5375C18.5275 34.9708 18.619 34.4137 18.619 33.3C18.619 32.1862 18.5275 31.6291 18.4159 32.0625C18.3039 32.4958 17.9439 32.85 17.6155 32.85C17.2182 32.85 17.5675 31.8321 18.6577 29.8129C20.2142 26.9298 20.4146 26.7426 22.6208 26.1063C25.203 25.362 25.6497 24.75 23.611 24.75C22.8777 24.75 22.2795 24.5983 22.2817 24.4125C22.2839 24.2266 23.2706 22.7902 24.4742 21.2206C25.847 19.4292 26.5626 18.1026 26.3946 17.6589C26.2262 17.2147 26.3075 17.0653 26.6128 17.2566C26.891 17.4307 27.9968 16.4038 29.1986 14.8554C30.3533 13.3672 31.475 12.15 31.6924 12.15C32.2377 12.15 31.4462 13.5544 30.319 14.5872C29.8075 15.0561 29.3888 15.7473 29.3888 16.123C29.3888 16.6302 29.687 16.5249 30.5422 15.7158C31.9422 14.3919 33.0786 12.2836 32.7141 11.6869C32.0719 10.6348 30.6088 11.4651 27.919 14.4063ZM37.1257 15.2199C34.4622 18.688 33.5995 19.4688 30.611 21.1144C28.7164 22.1575 27.1666 22.8613 27.1666 22.6782C27.1666 22.4946 28.1586 21.19 29.3706 19.7788C31.3595 17.464 31.6968 16.65 30.667 16.65C29.9715 16.65 25.3888 22.8465 25.3888 23.7874C25.3888 25.1262 25.9662 25.0096 29.4746 22.9617C31.1595 21.978 32.3901 21.4213 32.2093 21.7242C32.0284 22.027 31.3195 23.1754 30.6346 24.2757C29.4648 26.1544 28.9746 28.35 29.7248 28.35C29.9097 28.35 30.3044 27.7933 30.6017 27.1125C30.8995 26.4321 32.5395 24.0525 34.2462 21.825C35.9528 19.5975 38.2648 16.5811 39.3844 15.1222C41.3426 12.5694 41.6346 11.7081 40.6533 11.3769C40.4017 11.2918 38.8142 13.0212 37.1257 15.2199ZM40.2533 16.4403C36.087 21.8794 33.403 26.2318 33.3941 27.5625C33.3861 28.7172 34.0573 28.5223 34.6542 27.1966C35.2715 25.8246 38.8737 20.884 42.6622 16.2126C45.2857 12.9771 46.0333 11.25 44.8088 11.25C44.4897 11.25 42.4395 13.5855 40.2533 16.4403ZM5.83326 12.6C5.83326 13.1715 7.18215 13.1715 8.05549 12.6C8.56126 12.2688 8.37371 12.1621 7.27771 12.1567C6.48349 12.1531 5.83326 12.3525 5.83326 12.6ZM9.18882 12.9645C9.42127 13.1652 10.1537 13.5625 10.8173 13.8474C11.7439 14.2456 12.0955 14.2393 12.3333 13.8204C12.503 13.5207 12.4848 13.419 12.2928 13.5945C12.1004 13.7704 11.3782 13.6183 10.6879 13.257C9.32082 12.541 8.51682 12.3844 9.18882 12.9645ZM6.92126 14.1912C7.39726 14.5561 8.17237 14.7303 8.64349 14.5791C9.20704 14.3977 9.39593 14.4742 9.19593 14.8018C9.02882 15.0759 9.09193 15.3 9.33638 15.3C9.58082 15.3 9.88615 15.1272 10.0155 14.9157C10.3124 14.4288 8.32704 13.4955 7.0346 13.5144C6.07638 13.5283 6.07415 13.5427 6.92126 14.1912ZM31.3706 15.3301C31.2093 15.5938 31.1688 15.9025 31.2808 16.0155C31.5906 16.3296 32.9444 15.7081 32.9444 15.2518C32.9444 14.6884 31.7253 14.7492 31.3706 15.3301ZM13.6853 15.6001C13.5222 15.7648 13.3888 16.1091 13.3888 16.3651C13.3888 16.6468 13.5959 16.6203 13.9146 16.2976C14.2039 16.0047 14.3373 15.6604 14.211 15.5326C14.0848 15.4048 13.8479 15.435 13.6853 15.6001ZM49.6413 18.5944C48.5395 20.0574 42.1448 23.85 40.7804 23.85C39.0853 23.85 40.2684 22.6395 42.8959 21.6855C44.4582 21.118 46.063 20.2887 46.4621 19.8423C47.2693 18.9396 46.983 17.55 45.9902 17.55C43.8328 17.55 38.3768 22.2903 38.9115 23.7001C39.0519 24.0705 39.1666 24.4584 39.1666 24.5619C39.1666 25.2382 42.4528 24.5119 44.4599 23.3919C45.7822 22.6539 46.9368 22.05 47.0257 22.05C47.1146 22.05 46.8715 22.5373 46.4861 23.1331C45.955 23.9539 45.915 24.2982 46.3208 24.552C46.619 24.7387 47.0737 24.5898 47.3453 24.2163C48.4417 22.7083 53.1395 18.9 53.9026 18.9C54.3533 18.9 54.7222 18.6012 54.7222 18.2362C54.7222 17.4798 53.4199 17.8456 51.2804 19.2024L50.0555 19.9795L51.0795 18.8221C51.9386 17.8515 51.9937 17.6224 51.4221 17.4001C50.9844 17.23 50.3475 17.6571 49.6413 18.5944ZM55.5453 18.7875C53.2768 21.2112 52.4999 22.5283 52.4999 23.9503C52.4999 25.6689 53.9768 25.6212 55.611 23.85C56.2959 23.1075 57.199 22.5 57.6182 22.5C58.615 22.5 62.7222 20.2311 62.7222 19.6803C62.7222 19.4458 62.4724 19.3581 62.1666 19.4859C61.8613 19.6137 60.8613 20.043 59.9444 20.4403C59.0279 20.8372 58.2777 20.9686 58.2777 20.7324C58.2777 20.4966 58.4777 20.178 58.7222 20.025C59.4253 19.5849 59.239 17.6742 58.4635 17.3731C57.3493 16.9402 57.2124 17.0064 55.5453 18.7875ZM43.6915 19.6231C42.6359 20.2639 41.8937 20.9115 42.0426 21.0622C42.3657 21.3894 46.2777 19.2969 46.2777 18.7969C46.2777 18.2196 45.7017 18.4036 43.6915 19.6231ZM56.9284 19.8738C56.4195 20.8786 56.4315 20.8908 57.1995 20.1483C57.6413 19.7208 57.8808 19.2478 57.7315 19.0971C57.5826 18.9463 57.2213 19.296 56.9284 19.8738ZM54.5937 22.0513C54.1866 22.6395 53.9537 23.2222 54.0764 23.346C54.4581 23.7325 55.7244 22.1697 55.5239 21.5599C55.3982 21.1779 55.0826 21.3444 54.5937 22.0513ZM2.08704 32.2069C0.72793 33.5835 2.13326 35.6593 3.88393 34.861C4.61415 34.528 4.56082 34.4565 3.47371 34.3066C1.92526 34.0938 1.97282 32.6043 3.52615 32.6619C4.07504 32.6826 4.45237 32.4801 4.36437 32.2119C4.09949 31.4077 2.87949 31.405 2.08704 32.2069ZM6.72215 31.95C6.72215 32.1975 6.90926 32.4 7.1386 32.4C7.36748 32.4 7.63549 33.0583 7.73415 33.8625L7.91326 35.325L7.98437 33.8625C8.02348 33.0583 8.25549 32.4 8.49993 32.4C8.74438 32.4 8.94438 32.1975 8.94438 31.95C8.94438 31.7025 8.44438 31.5 7.83326 31.5C7.22215 31.5 6.72215 31.7025 6.72215 31.95ZM12.0555 31.6701C12.0555 31.7637 11.7675 32.5377 11.4159 33.39L10.7759 34.9402L12.3035 34.9074C14.0297 34.8709 14.1048 34.6873 13.155 32.8275C12.5648 31.6714 12.0555 31.1355 12.0555 31.6701ZM21.6884 31.8375C21.2586 32.5732 20.8968 36.2178 21.315 35.6017C21.6004 35.181 22.1328 35.0784 22.9528 35.2867C23.9595 35.5428 24.1204 35.4699 23.8893 34.861C23.7364 34.4569 23.611 33.5353 23.611 32.8131C23.611 31.8132 23.4053 31.5 22.7484 31.5C22.2737 31.5 21.7968 31.6521 21.6884 31.8375ZM26.4773 33.0606C26.123 33.9187 25.8333 34.6882 25.8333 34.7706C25.8333 34.8529 26.5333 34.92 27.3888 34.92C28.2444 34.92 28.9444 34.884 28.9444 34.8399C28.9444 34.4529 27.5439 31.5 27.3604 31.5C27.2288 31.5 26.8315 32.2024 26.4773 33.0606ZM31.0186 31.8001C30.5479 32.2762 30.675 35.1 31.1666 35.1C31.411 35.1 31.611 34.9209 31.611 34.7026C31.611 34.4839 32.011 34.1991 32.4999 34.0695C33.5644 33.7878 33.6955 32.1655 32.6857 31.7731C31.7822 31.4221 31.3853 31.4284 31.0186 31.8001ZM35.611 31.95C35.611 32.1975 35.7981 32.4 36.0275 32.4C36.2564 32.4 36.5244 33.0583 36.623 33.8625L36.8021 35.325L36.8733 33.8625C36.9124 33.0583 37.1444 32.4 37.3888 32.4C37.6333 32.4 37.8333 32.1975 37.8333 31.95C37.8333 31.7025 37.3333 31.5 36.7222 31.5C36.111 31.5 35.611 31.7025 35.611 31.95ZM43.1493 31.5C42.8479 32.3469 42.8959 34.7058 43.2182 34.9074C43.4342 35.0424 43.611 34.8061 43.611 34.3818C43.611 33.6676 43.6773 33.6708 44.4999 34.425C45.4297 35.2773 45.7688 34.7647 44.8741 33.8589C44.4848 33.4647 44.4977 33.1699 44.9288 32.6439C45.2804 32.215 45.3173 31.95 45.0248 31.95C44.7653 31.95 44.4061 32.1898 44.2275 32.4828C44.0039 32.8486 43.7968 32.7433 43.5657 32.1453C43.3804 31.6665 43.1933 31.3762 43.1493 31.5ZM47.611 33.2577C47.611 34.969 47.6404 35.0014 48.7141 34.4952C49.3208 34.209 49.9244 33.696 50.055 33.3553C50.3728 32.5278 49.4813 31.5 48.4457 31.5C47.7715 31.5 47.611 31.8384 47.611 33.2577ZM52.6995 33.0606C52.3453 33.9187 52.0555 34.6882 52.0555 34.7706C52.0555 34.8529 52.7555 34.92 53.611 34.92C54.4666 34.92 55.1666 34.884 55.1666 34.8399C55.1666 34.4529 53.7662 31.5 53.5826 31.5C53.451 31.5 53.0537 32.2024 52.6995 33.0606ZM57.6204 32.2294C56.2799 33.5871 57.7066 35.6512 59.4395 34.861C60.1697 34.528 60.1164 34.4565 59.0293 34.3066C57.4902 34.0951 57.5266 32.6047 59.0693 32.6605C60.211 32.7019 60.3799 32.1723 59.3524 31.7731C58.4097 31.4068 58.4413 31.3987 57.6204 32.2294ZM62.5462 32.4697C61.3853 34.1478 62.7017 35.5977 64.6857 34.8268C66.035 34.3026 65.263 31.5 63.7697 31.5C63.4657 31.5 62.915 31.9365 62.5462 32.4697ZM67.611 31.95C67.611 32.1975 67.7982 32.4 68.0275 32.4C68.2564 32.4 68.5244 33.0583 68.623 33.8625L68.8022 35.325L68.8733 33.8625C68.9124 33.0583 69.1444 32.4 69.3888 32.4C69.6333 32.4 69.8333 32.1975 69.8333 31.95C69.8333 31.7025 69.3333 31.5 68.7222 31.5C68.111 31.5 67.611 31.7025 67.611 31.95ZM75.2875 33.3C75.2875 34.4137 75.3742 34.8691 75.4804 34.3125C75.5862 33.7558 75.5862 32.8441 75.4804 32.2875C75.3742 31.7308 75.2875 32.1862 75.2875 33.3ZM72.0555 33.525C72.0555 34.8948 72.1968 35.1 73.1404 35.1C74.7542 35.1 74.9799 34.2418 73.6862 33.0268C72.1853 31.6183 72.0555 31.6579 72.0555 33.525ZM22.1488 33.3C21.9977 33.885 22.1355 34.2 22.5417 34.2C22.8853 34.2 23.1666 33.795 23.1666 33.3C23.1666 32.805 22.9897 32.4 22.7742 32.4C22.5582 32.4 22.2768 32.805 22.1488 33.3ZM31.611 32.85C31.611 33.0975 31.811 33.3 32.0555 33.3C32.2999 33.3 32.4999 33.0975 32.4999 32.85C32.4999 32.6025 32.2999 32.4 32.0555 32.4C31.811 32.4 31.611 32.6025 31.611 32.85ZM48.4999 32.85C48.4999 33.0975 48.6999 33.3 48.9444 33.3C49.1888 33.3 49.3888 33.0975 49.3888 32.85C49.3888 32.6025 49.1888 32.4 48.9444 32.4C48.6999 32.4 48.4999 32.6025 48.4999 32.85ZM62.9355 32.8644C62.763 33.147 62.831 33.5902 63.0866 33.849C63.6839 34.4538 65.0764 33.9264 64.8333 33.187C64.5862 32.4351 63.3284 32.2209 62.9355 32.8644Z" fill="#021323"/>
</svg>
