<svg width="258" height="264" viewBox="0 0 258 264" fill="none" xmlns="http://www.w3.org/2000/svg">
<path d="M158.408 56.4419C166.145 47.5043 184.82 31.039 199.907 19.8652C229.702 -2.21188 246.329 -6.01483 246.329 9.23972C246.329 22.9987 207.095 117.631 189.307 146.766C181.099 160.211 175.88 172.717 177.702 174.561C184.074 181.014 203.382 169.113 214.565 151.829C220.769 142.243 229.076 136.418 233.029 138.889C237.488 141.681 235.385 149.201 227.493 158.702C215.564 173.073 215.888 173.03 232.768 157.996C255.093 138.106 263.274 137.458 253.279 156.38C249.087 164.306 226.818 179.497 203.79 190.144C175.029 203.447 161.925 213.56 161.925 222.447C161.925 229.569 158.76 233.415 154.891 230.993C151.023 228.572 147.857 230.359 147.857 234.967C147.857 240.024 141 242.01 130.533 239.981C118.513 237.659 108.455 241.761 97.6578 253.398C79.0959 273.403 70.4866 274.706 70.4866 257.514C70.4866 247.181 65.6333 245.329 44.0047 247.416C23.0442 249.438 13.3658 246.07 -2.44602 231.235C-19.7841 214.962 -21.8098 209.03 -17.8358 186.141C-15.3247 171.642 -11.4773 145.74 -9.29686 128.591C-7.10937 111.435 -3.29708 100.39 -0.828241 104.036C6.17031 114.376 56.7427 144.017 60.6394 140.071C66.8642 133.776 6.07886 85.8757 -3.43776 89.5718C-18.1031 95.2691 -3.7824 43.0248 14.2099 25.1708L29.2761 10.2225L65.7037 50.8799C101.555 90.8822 102.476 91.3878 123.239 82.1226C134.845 76.938 150.671 65.3867 158.408 56.4419Z" fill="#F1EFEA"/>
<path d="M105.655 258.533C105.655 254.48 107.765 249.032 110.347 246.426C112.921 243.812 116.67 243.335 118.668 245.358C120.665 247.38 118.555 252.828 113.976 257.464C108.933 262.571 105.655 262.991 105.655 258.533Z" fill="#F1EFEA"/>
</svg>
