<svg width="17" height="16" viewBox="0 0 17 16" fill="none" xmlns="http://www.w3.org/2000/svg">
<g clip-path="url(#clip0_137_7571)">
<path d="M6.87439 4.23332C5.51439 5.75999 4.58105 7.95332 4.49439 8.15999L2.08105 7.12666L4.78105 4.42666C5.09439 4.11332 5.54772 3.97332 5.98772 4.05999L6.87439 4.23332ZM8.19439 11.3333C8.19439 11.3333 10.6877 10.3 12.1211 8.86666C15.7211 5.26666 15.1211 2.45332 14.9277 1.81999C14.2944 1.61999 11.4811 1.02666 7.88105 4.62666C6.44772 6.05999 5.41439 8.55332 5.41439 8.55332L8.19439 11.3333ZM12.5144 9.87332C10.9877 11.2333 8.79439 12.1667 8.58772 12.2533L9.62106 14.6667L12.3211 11.9667C12.6344 11.6533 12.7744 11.2 12.6877 10.76L12.5144 9.87332ZM6.74772 12C6.74772 12.5533 6.52105 13.0533 6.16105 13.4133C5.37439 14.2 2.08105 14.6667 2.08105 14.6667C2.08105 14.6667 2.54772 11.3733 3.33439 10.5867C3.69439 10.2267 4.19439 9.99999 4.74772 9.99999C5.85439 9.99999 6.74772 10.8933 6.74772 12ZM9.41439 5.99999C9.41439 5.26666 10.0144 4.66666 10.7477 4.66666C11.4811 4.66666 12.0811 5.26666 12.0811 5.99999C12.0811 6.73332 11.4811 7.33332 10.7477 7.33332C10.0144 7.33332 9.41439 6.73332 9.41439 5.99999Z" fill="#021323"/>
</g>
<defs>
<clipPath id="clip0_137_7571">
<rect width="16" height="16" fill="white" transform="translate(0.75)"/>
</clipPath>
</defs>
</svg>
