<svg width="80" height="51" viewBox="0 0 80 51" fill="none" xmlns="http://www.w3.org/2000/svg">
<g filter="url(#filter0_d_5_8)">
<path d="M2.292 15.8642H9.972V19.0642H2.292V15.8642ZM17.1685 7.73621L12.3365 11.0322V7.28821L17.6485 3.51221H21.4565V26.3922H17.1685V7.73621Z" fill="white"/>
<path d="M41.828 30.5357C45.3053 30.5357 47.044 27.9117 47.044 22.6637V21.5437C47.044 19.069 46.5853 17.149 45.668 15.7837C44.772 14.4183 43.4707 13.7357 41.764 13.7357C40.036 13.7357 38.7133 14.4077 37.796 15.7517C36.8787 17.0743 36.42 19.0157 36.42 21.5757V22.7277C36.42 25.309 36.8787 27.261 37.796 28.5837C38.7347 29.885 40.0787 30.5357 41.828 30.5357ZM41.732 33.9277C38.8307 33.9277 36.5053 32.925 34.756 30.9197C33.0067 28.893 32.132 26.173 32.132 22.7597V21.6077C32.132 18.173 33.0067 15.453 34.756 13.4477C36.5053 11.421 38.8307 10.4077 41.732 10.4077C44.6333 10.4077 46.948 11.4103 48.676 13.4157C50.4253 15.3997 51.3 18.0983 51.3 21.5117V22.6637C51.3 26.1197 50.4467 28.861 48.74 30.8877C47.0333 32.9143 44.6973 33.9277 41.732 33.9277ZM57.6423 18.2477C58.0903 18.7597 58.6983 19.0157 59.4663 19.0157C60.2343 19.0157 60.8316 18.7597 61.2583 18.2477C61.6849 17.7357 61.8983 16.9997 61.8983 16.0397C61.8983 15.101 61.6743 14.3757 61.2263 13.8637C60.7996 13.3303 60.2129 13.0637 59.4663 13.0637C58.6983 13.0637 58.0903 13.3303 57.6423 13.8637C57.2156 14.3757 57.0023 15.101 57.0023 16.0397C57.0023 16.9997 57.2156 17.7357 57.6423 18.2477ZM63.4023 20.0077C62.3356 21.0743 61.0129 21.6077 59.4343 21.6077C57.8556 21.6077 56.5329 21.085 55.4663 20.0397C54.3996 18.973 53.8663 17.6503 53.8663 16.0717C53.8663 14.493 54.4103 13.1703 55.4983 12.1037C56.5862 11.037 57.9089 10.5037 59.4663 10.5037C61.0236 10.5037 62.3356 11.0263 63.4023 12.0717C64.4689 13.117 65.0023 14.429 65.0023 16.0077C65.0023 17.6077 64.4689 18.941 63.4023 20.0077ZM71.7543 10.7277H74.4423L59.7223 33.6077H57.0023L71.7543 10.7277ZM70.1863 30.5677C70.6343 31.0797 71.2423 31.3357 72.0103 31.3357C72.7783 31.3357 73.3756 31.0797 73.8023 30.5677C74.2289 30.0557 74.4423 29.3197 74.4423 28.3597C74.4423 27.421 74.2183 26.6957 73.7703 26.1837C73.3436 25.6503 72.7569 25.3837 72.0103 25.3837C71.2423 25.3837 70.6343 25.6503 70.1863 26.1837C69.7596 26.6957 69.5463 27.421 69.5463 28.3597C69.5463 29.3197 69.7596 30.0557 70.1863 30.5677ZM71.9783 33.9277C70.3996 33.9277 69.0769 33.405 68.0103 32.3597C66.9649 31.293 66.4423 29.9703 66.4423 28.3917C66.4423 26.813 66.9756 25.4903 68.0423 24.4237C69.1303 23.357 70.4529 22.8237 72.0103 22.8237C73.5676 22.8237 74.8796 23.3463 75.9463 24.3917C77.0343 25.437 77.5783 26.749 77.5783 28.3277C77.5783 29.9277 77.0449 31.261 75.9783 32.3277C74.9116 33.3943 73.5783 33.9277 71.9783 33.9277Z" fill="white"/>
<path opacity="0.4" d="M31.3359 5.56021H32.9359L23.6239 35.1282H22.0239L31.3359 5.56021Z" fill="#CCE9EF"/>
</g>
<defs>
<filter id="filter0_d_5_8" x="-1.5" y="0.392212" width="83" height="54.2155" filterUnits="userSpaceOnUse" color-interpolation-filters="sRGB">
<feFlood flood-opacity="0" result="BackgroundImageFix"/>
<feColorMatrix in="SourceAlpha" type="matrix" values="0 0 0 0 0 0 0 0 0 0 0 0 0 0 0 0 0 0 127 0" result="hardAlpha"/>
<feOffset dy="13"/>
<feGaussianBlur stdDeviation="1"/>
<feComposite in2="hardAlpha" operator="out"/>
<feColorMatrix type="matrix" values="0 0 0 0 1 0 0 0 0 1 0 0 0 0 1 0 0 0 0.1 0"/>
<feBlend mode="normal" in2="BackgroundImageFix" result="effect1_dropShadow_5_8"/>
<feBlend mode="normal" in="SourceGraphic" in2="effect1_dropShadow_5_8" result="shape"/>
</filter>
</defs>
</svg>
