<svg width="17" height="16" viewBox="0 0 17 16" fill="none" xmlns="http://www.w3.org/2000/svg">
<g clip-path="url(#clip0_137_7582)">
<path d="M12.2056 10.6667L13.2923 9.58004C11.4456 7.56671 11.4456 4.54004 13.2923 2.42004L12.2056 1.33337C9.60561 3.92671 9.59894 7.96671 12.2056 10.6667ZM15.5323 7.30004C14.9723 6.51337 14.9723 5.49337 15.5323 4.70671L14.4123 3.58004C13.0656 4.92671 13.0656 6.96004 14.4123 8.42671L15.5323 7.30004ZM6.25228 8.66671C7.72561 8.66671 8.91894 7.47337 8.91894 6.00004C8.91894 4.52671 7.72561 3.33337 6.25228 3.33337C4.77894 3.33337 3.58561 4.52671 3.58561 6.00004C3.58561 7.47337 4.77894 8.66671 6.25228 8.66671ZM10.5123 10.3734C9.39228 9.80004 7.93894 9.33337 6.25228 9.33337C4.56561 9.33337 3.11228 9.80004 1.99228 10.3734C1.32561 10.7134 0.918945 11.4 0.918945 12.1467V14H11.5856V12.1467C11.5856 11.4 11.1789 10.7134 10.5123 10.3734Z" fill="#021323"/>
</g>
<defs>
<clipPath id="clip0_137_7582">
<rect width="16" height="16" fill="white" transform="translate(0.25)"/>
</clipPath>
</defs>
</svg>
